<svg width="100" height="100" fill="none" xmlns="http://www.w3.org/2000/svg"><g opacity=".5" fill-rule="evenodd" clip-rule="evenodd"><path d="M50 0a49.77 49.77 0 0131.66 11.3l-8.61 6.885a39.108 39.108 0 00-23.055-7.47c-21.7 0-39.285 17.59-39.285 39.285 0 21.7 17.59 39.285 39.285 39.285 21.7 0 39.285-17.59 39.285-39.285 0-.5-.01-1-.025-1.5l9.985-7.21c.5 2.83.755 5.74.755 8.71 0 27.615-22.385 50-50 50S0 77.615 0 50 22.385 0 50 0z" fill="url(#paint0_linear_101_1640)"/><path d="M31.19 37.815L50 50l40.59-29.75 6.03 9.795L50 64.115l-18.81-11.74v-14.56z" fill="#229E39"/></g><defs><linearGradient id="paint0_linear_101_1640" x1="5816.51" y1="0" x2="520.332" y2="7140.25" gradientUnits="userSpaceOnUse"><stop stop-color="#0187C8"/><stop offset=".313" stop-color="#08A652"/><stop offset=".724" stop-color="#08A652"/><stop offset="1" stop-color="#FAEF23"/></linearGradient></defs></svg>