<svg width="82" height="55" fill="none" xmlns="http://www.w3.org/2000/svg"><path d="M0 0v55h81.667V0H0zm5.833 5h70v34.765L60.43 26.485l-2.097-1.797-13.215 11.327-16.77-14.53-2.098-1.797-20.417 17.5V5zm58.334 5c-1.547 0-3.031.527-4.125 1.464-1.094.938-1.709 2.21-1.709 3.536s.615 2.598 1.709 3.535C61.136 19.473 62.62 20 64.167 20c1.547 0 3.03-.527 4.124-1.465C69.385 17.598 70 16.326 70 15s-.615-2.598-1.709-3.536C67.198 10.527 65.715 10 64.168 10zM26.25 26.797L53.048 50H5.833v-5.703l20.417-17.5zm32.083 5l17.5 15V50H61.34L49.22 39.53l9.114-7.733z" fill="#7D7D97"/></svg>