<svg width="40" height="42" fill="none" xmlns="http://www.w3.org/2000/svg"><path d="M10.956 5.217l4.97 8.61h-9.94l4.97-8.61zm18.087 0l4.97 8.61h-9.94l4.97-8.61zm6.285 18.982l-7.577 6.527-7.403-18.55a.438.438 0 00-.7 0l-9.399 18.55L4.667 24.2a.439.439 0 00-.663.43l2.892 12.174c.55 3.959 13.107 4.24 13.107 4.24s12.61-.295 13.102-4.24l2.892-12.174a.443.443 0 00-.669-.43z" fill="#CC803A"/><path d="M39.328 7.199l-10.577 6.527L20.348.176a.438.438 0 00-.7 0l-8.399 13.55L.667 7.2a.439.439 0 00-.663.43l4.892 21.174c.55 3.958 15.107 4.24 15.107 4.24s14.61-.295 15.102-4.24L39.997 7.63a.443.443 0 00-.669-.43z" fill="#E9B756"/><path d="M20 18.783l3.305 4.347L20 27.478l-3.304-4.348L20 18.783z" fill="#CC803A"/></svg>