<svg width="34" height="34" fill="none" xmlns="http://www.w3.org/2000/svg"><path fill-rule="evenodd" clip-rule="evenodd" d="M18.233.043a17.226 17.226 0 00-2.464 0c-1.179.085-2.078.954-2.336 2.016l-.544 2.24c-.031.121-.14.266-.348.34-.382.14-.757.296-1.125.469-.201.093-.38.068-.487.003L8.96 3.91c-.934-.568-2.182-.546-3.076.228A17.204 17.204 0 004.14 5.882c-.773.895-.796 2.144-.228 3.076l1.2 1.97c.065.107.09.286-.003.487-.173.366-.33.742-.467 1.125-.077.209-.221.319-.342.348l-2.24.544C.997 13.69.128 14.589.043 15.769c-.059.82-.059 1.643 0 2.463.085 1.18.954 2.079 2.015 2.337l2.241.544c.12.03.266.139.34.348.14.382.295.758.469 1.126.092.2.068.379.003.486l-1.2 1.969c-.568.933-.547 2.182.228 3.075a17.21 17.21 0 001.743 1.745c.895.773 2.144.796 3.075.227l1.97-1.2c.108-.064.287-.09.488.004.367.174.742.33 1.125.467.208.077.318.22.348.341l.544 2.241c.258 1.062 1.157 1.93 2.336 2.014.821.059 1.643.059 2.464 0 1.18-.084 2.079-.952 2.337-2.014l.544-2.24c.03-.121.139-.267.347-.34.383-.14.759-.296 1.127-.47.2-.092.379-.067.485-.002l1.97 1.2c.933.568 2.182.546 3.075-.228a17.206 17.206 0 001.745-1.743c.773-.895.796-2.144.227-3.076l-1.2-1.97c-.064-.107-.09-.286.004-.487.173-.366.329-.742.466-1.125.078-.209.221-.319.342-.348l2.241-.544c1.062-.258 1.93-1.158 2.014-2.337.059-.82.059-1.643 0-2.463-.084-1.18-.952-2.08-2.014-2.337l-2.241-.544c-.12-.031-.266-.14-.34-.348-.14-.382-.295-.757-.468-1.125-.093-.2-.068-.38-.003-.487l1.2-1.968c.569-.933.547-2.182-.227-3.075a17.2 17.2 0 00-1.744-1.745c-.894-.773-2.143-.796-3.075-.227l-1.97 1.199c-.107.065-.287.091-.487-.003-.368-.173-.744-.33-1.126-.467-.208-.077-.318-.22-.347-.341L20.57 2.06C20.312.997 19.412.129 18.233.043zm-2.547 2.563c.04-.172.164-.243.249-.25.71-.05 1.423-.05 2.132 0 .085.007.21.078.25.248l.543 2.241a2.835 2.835 0 001.813 1.975c.315.114.625.242.928.385a2.83 2.83 0 002.678-.114l1.97-1.2c.15-.092.288-.055.353 0 .538.467 1.041.971 1.508 1.509.056.065.093.2 0 .352l-1.2 1.97a2.833 2.833 0 00-.113 2.679c.142.303.27.612.383.927.306.846 1.007 1.577 1.975 1.812l2.24.545c.172.04.244.164.25.249.05.71.05 1.423 0 2.133-.006.085-.078.208-.248.25l-2.24.543a2.83 2.83 0 00-1.976 1.813 10.41 10.41 0 01-.386.927 2.834 2.834 0 00.116 2.678l1.2 1.97c.092.15.055.288 0 .353a14.724 14.724 0 01-1.51 1.508c-.064.056-.2.093-.352 0l-1.97-1.199a2.83 2.83 0 00-2.678-.114c-.303.142-.613.27-.928.383a2.834 2.834 0 00-1.811 1.975l-.546 2.241c-.04.172-.163.243-.248.249-.71.05-1.423.05-2.133 0-.085-.006-.209-.077-.25-.247l-.543-2.241a2.83 2.83 0 00-1.813-1.976 10.548 10.548 0 01-.927-.386 2.829 2.829 0 00-2.68.116l-1.969 1.2c-.15.092-.288.055-.352 0a14.789 14.789 0 01-1.509-1.51c-.055-.065-.093-.2 0-.352l1.2-1.97a2.83 2.83 0 00.114-2.68c-.142-.302-.27-.611-.385-.927a2.832 2.832 0 00-1.974-1.81l-2.24-.546c-.172-.04-.243-.164-.25-.25a14.882 14.882 0 010-2.132c.007-.085.078-.209.248-.25l2.24-.543a2.83 2.83 0 001.976-1.813c.114-.314.243-.624.385-.927a2.833 2.833 0 00-.115-2.68L5.892 7.752c-.093-.15-.055-.287 0-.352.467-.538.97-1.042 1.509-1.509.064-.055.2-.092.352 0l1.969 1.2a2.833 2.833 0 002.68.114c.303-.142.612-.27.927-.385a2.832 2.832 0 001.811-1.973l.546-2.241zm5.686 18.766a6.182 6.182 0 10-8.742-8.743 6.182 6.182 0 008.742 8.743zm-1.639-7.104a3.864 3.864 0 11-5.464 5.465 3.864 3.864 0 015.464-5.465z" fill="#fff"/></svg>