<svg width="40" height="44" fill="none" xmlns="http://www.w3.org/2000/svg"><path d="M0 6a5 5 0 015-5h30a5 5 0 015 5v25a5 5 0 01-5 5H5a5 5 0 01-5-5V6z" fill="#00AD96"/><path d="M21.064 43.129a1.68 1.68 0 01-2.945 0L12.23 32.67c-.654-1.162.164-2.614 1.473-2.614H25.48c1.31 0 2.127 1.453 1.473 2.614l-5.89 10.458z" fill="#00AD96"/><path d="M24.598 13.53c0 1.253-.593 2.417-1.778 3.492-.364.304-.728.613-1.091.926-.5.457-.906.96-1.22 1.511-.143.262-.317.94-.52 2.031-.169.931-.6 1.397-1.295 1.397-.778 0-1.168-.508-1.168-1.524 0-.838.22-1.7.66-2.59.45-.888 1.016-1.603 1.702-2.145.846-.669 1.392-1.147 1.637-1.435.415-.49.623-1.036.623-1.637 0-.635-.254-1.16-.762-1.575-.5-.423-1.155-.634-1.968-.634-.542 0-1.121.22-1.74.66-.617.431-1.04.647-1.269.647a.902.902 0 01-.698-.33 1.23 1.23 0 01-.292-.825c0-.55.385-1.045 1.155-1.485.83-.483 1.837-.724 3.022-.724 1.532 0 2.746.385 3.643 1.155.906.77 1.359 1.799 1.359 3.085zm-3.872 12.124c0 .483-.165.88-.495 1.194-.322.313-.75.47-1.283.47-.516 0-.935-.153-1.257-.458-.321-.304-.482-.698-.482-1.18 0-.5.17-.91.508-1.232.338-.33.766-.495 1.282-.495.508 0 .923.16 1.244.483.322.313.483.719.483 1.218z" fill="#A7EAE1"/></svg>