<svg width="30" height="29" fill="none" xmlns="http://www.w3.org/2000/svg"><path d="M9.48 23.215L15 19.886l5.518 3.373-1.445-6.308 4.862-4.205-6.395-.57L15 6.22l-2.541 5.913-6.395.57 4.862 4.248-1.446 6.264zm5.52.788l-7.272 4.38a1.591 1.591 0 01-1.007.263 1.693 1.693 0 01-.92-.35 2.099 2.099 0 01-.613-.767c-.146-.308-.176-.65-.088-1.029l1.927-8.279L.588 12.66c-.292-.263-.474-.563-.546-.9a1.755 1.755 0 01.065-.984c.116-.321.292-.584.525-.788.234-.205.555-.336.964-.394l8.498-.745 3.285-7.797c.146-.35.372-.613.68-.788.307-.175.62-.263.94-.263.321 0 .635.088.941.263.306.175.533.438.68.788l3.285 7.797 8.498.745c.408.058.73.19.963.394.234.204.409.467.526.788.117.321.139.65.066.987-.072.336-.255.635-.548.897l-6.439 5.562 1.927 8.28c.088.379.059.722-.087 1.03-.146.306-.35.562-.613.765-.263.204-.57.321-.92.35-.35.03-.686-.058-1.008-.262L15 24.004z" fill="#fff"/></svg>