<svg width="30" height="30" fill="none" xmlns="http://www.w3.org/2000/svg"><path fill-rule="evenodd" clip-rule="evenodd" d="M7.72 0c.638 0 1.226.344 1.539.9l5.955 10.588a1.764 1.764 0 01-1.537 2.63H1.764a1.765 1.765 0 01-1.538-2.63L6.183.9c.312-.556.9-.9 1.538-.9zm10.23 2.067a7.059 7.059 0 119.983 9.984 7.059 7.059 0 01-9.983-9.984zm4.99 1.463a3.53 3.53 0 100 7.06 3.53 3.53 0 000-7.06zM4.782 10.59h5.877L7.721 5.363l-2.939 5.224zm11.1 7.058c0-.975.79-1.765 1.765-1.765h10.588c.975 0 1.765.79 1.765 1.765v10.588C30 29.21 29.21 30 28.235 30H17.647c-.975 0-1.765-.79-1.765-1.765V17.647zm3.53 1.765v7.059h7.059v-7.06h-7.06zM.517 16.4a1.764 1.764 0 012.496 0l4.046 4.046 4.046-4.046a1.765 1.765 0 112.496 2.495l-4.047 4.047 4.047 4.046a1.765 1.765 0 01-2.496 2.496L7.06 25.437l-4.046 4.047a1.765 1.765 0 01-2.496-2.496l4.046-4.046-4.046-4.047a1.765 1.765 0 010-2.495z" fill="#fff"/></svg>