<svg width="30" height="30" fill="none" xmlns="http://www.w3.org/2000/svg"><path d="M21.161 16.38c-.027-.012-.052-.026-.08-.036-.206-.093-.41-.19-.622-.274a8.994 8.994 0 10-11.112 0c-.21.084-.415.18-.622.274l-.08.036A14.91 14.91 0 00.008 28.338a1.5 1.5 0 102.983.323 11.911 11.911 0 015.975-9.082l4.875 4.874a1.5 1.5 0 002.12 0l4.875-4.874a11.91 11.91 0 015.978 9.082 1.5 1.5 0 102.98-.323A14.91 14.91 0 0021.16 16.38zM8.968 8.4a5.962 5.962 0 0111.87 0H8.969zm5.935 12.872L12 18.37a11.745 11.745 0 015.808 0l-2.903 2.904zm0-6.266A6 6 0 019.41 11.4h10.987a6 6 0 01-5.493 3.607z" fill="#fff"/></svg>