<svg width="30" height="26" fill="none" xmlns="http://www.w3.org/2000/svg"><path fill-rule="evenodd" clip-rule="evenodd" d="M10.91 6.82a8.182 8.182 0 100 16.363h8.18a8.182 8.182 0 100-16.364h-8.18zM0 15C0 8.977 4.884 4.093 10.91 4.093h8.18C25.117 4.092 30 8.976 30 15s-4.884 10.91-10.91 10.91h-8.18C4.883 25.91 0 21.026 0 15z" fill="#fff"/><path d="M19.773 12.954a1.364 1.364 0 100-2.728 1.364 1.364 0 000 2.728zm2.727 3.41a1.364 1.364 0 100-2.727 1.364 1.364 0 000 2.727z" fill="#fff"/><path fill-rule="evenodd" clip-rule="evenodd" d="M15 0c.753 0 1.364.61 1.364 1.364v4.09a1.364 1.364 0 11-2.728 0v-4.09C13.636.61 14.246 0 15 0zm-4.773 10.227c.753 0 1.364.61 1.364 1.364v2.045h2.045a1.364 1.364 0 110 2.728h-2.045v2.045a1.364 1.364 0 11-2.727 0v-2.045H6.818a1.364 1.364 0 110-2.728h2.046v-2.045c0-.753.61-1.364 1.363-1.364z" fill="#fff"/></svg>