<svg width="24" height="24" fill="none" xmlns="http://www.w3.org/2000/svg"><path fill-rule="evenodd" clip-rule="evenodd" d="M21.917 0c-.412 0-.814.122-1.156.35l-5.567 3.71a20.54 20.54 0 00-3.804 3.273 11.002 11.002 0 015.277 5.277 20.545 20.545 0 003.273-3.805l3.71-5.566A2.085 2.085 0 0021.918 0zm-9.095 15.37c.718-.4 1.412-.841 2.077-1.323A8.793 8.793 0 009.954 9.1a20.55 20.55 0 00-1.323 2.076l-.304.549a5.764 5.764 0 013.946 3.947l.55-.305-.001.001zM6.74 13.15a4.11 4.11 0 00-4.11 4.11A1.644 1.644 0 01.877 18.9a.821.821 0 00-.767 1.23 5.753 5.753 0 0010.74-2.87 4.11 4.11 0 00-4.11-4.11z" fill="#39A0FF"/></svg>