<svg width="24" height="24" fill="none" xmlns="http://www.w3.org/2000/svg"><path d="M.334 9.948L5.433 4.85a2.431 2.431 0 011.001-.607 2.343 2.343 0 011.184-.061l1.578.334c-1.093 1.295-1.953 2.468-2.58 3.52s-1.234 2.327-1.82 3.824L.333 9.948zm6.221 2.762a18.595 18.595 0 011.898-4.127A20.063 20.063 0 0111.35 4.94c1.78-1.78 3.813-3.111 6.1-3.992C19.736.068 21.87-.2 23.854.145c.343 1.982.08 4.117-.79 6.403-.87 2.287-2.195 4.32-3.975 6.1a20.398 20.398 0 01-3.642 2.9 18.396 18.396 0 01-4.158 1.926L6.555 12.71zm8.377-3.642c.465.466 1.037.698 1.715.698.678 0 1.25-.232 1.714-.698.466-.465.698-1.037.698-1.714s-.232-1.25-.698-1.715c-.465-.466-1.037-.698-1.715-.698-.678 0-1.25.232-1.714.698-.466.465-.698 1.037-.698 1.715 0 .678.232 1.25.698 1.714zm-.85 14.598l-1.942-4.461c1.497-.587 2.777-1.194 3.84-1.821 1.062-.627 2.24-1.487 3.535-2.58l.303 1.578c.081.405.06.805-.06 1.2a2.411 2.411 0 01-.608 1.016l-5.068 5.068zM2.276 16.595c.708-.708 1.568-1.068 2.58-1.078 1.012-.01 1.871.338 2.58 1.047.708.709 1.062 1.569 1.062 2.58 0 1.012-.354 1.872-1.062 2.58-.506.506-1.35.94-2.534 1.305-1.183.364-2.817.688-4.902.971.283-2.084.607-3.713.971-4.886.364-1.174.8-2.013 1.305-2.52z" fill="#FFA400"/></svg>