<svg width="24" height="17" fill="none" xmlns="http://www.w3.org/2000/svg"><path d="M3.6 2.42v8.47A2.412 2.412 0 006 13.31h15.6c1.324 0 2.4-1.084 2.4-2.42V2.42A2.412 2.412 0 0021.6 0H6a2.412 2.412 0 00-2.4 2.42zM6 8.47c1.324 0 2.4 1.086 2.4 2.42H6V8.47zm2.4-6.05A2.412 2.412 0 016 4.84V2.42h2.4zm13.2 6.05v2.42h-2.4a2.412 2.412 0 012.4-2.42zm-2.4-6.05h2.4v2.42a2.412 2.412 0 01-2.4-2.42zm-8.4 4.235c0-.802.316-1.571.879-2.139A2.987 2.987 0 0113.8 3.63c.796 0 1.559.319 2.121.886.563.568.879 1.337.879 2.14 0 .802-.316 1.571-.879 2.139a2.987 2.987 0 01-2.121.886 2.987 2.987 0 01-2.121-.886 3.038 3.038 0 01-.879-2.14zm-9-3.327a.902.902 0 00-.9-.908c-.499 0-.9.405-.9.908v9.075c0 2.508 2.014 4.538 4.5 4.538h15c.499 0 .9-.404.9-.907a.902.902 0 00-.9-.908h-15a2.71 2.71 0 01-2.7-2.723V3.328z" fill="#61B971"/></svg>