<svg width="22" height="22" fill="none" xmlns="http://www.w3.org/2000/svg"><circle cx="11" cy="11" r="11" fill="url(#paint0_linear_36_1173)"/><path d="M8.489 17.111a.455.455 0 01-.308-.12.417.417 0 01-.12-.308v-1.728H6.795a.417.417 0 01-.308-.12.396.396 0 01-.12-.29v-.6c0-.114.04-.21.12-.29.08-.08.182-.12.308-.12h1.266v-.89H6.795a.417.417 0 01-.308-.12.417.417 0 01-.12-.308v-1.112c0-.114.04-.211.12-.29.08-.08.182-.12.308-.12h1.266V5.56c0-.125.04-.228.12-.308a.456.456 0 01.308-.12h4.688c.924 0 1.723.143 2.396.428.684.285 1.215.719 1.591 1.3.377.57.565 1.284.565 2.14 0 .832-.188 1.517-.565 2.053-.376.536-.907.935-1.591 1.197-.673.263-1.472.394-2.396.394h-2.31v.89h2.567c.114 0 .211.04.291.12.08.08.12.177.12.29v.6c0 .114-.04.21-.12.29a.396.396 0 01-.29.12h-2.568v1.728c0 .126-.04.229-.12.308a.417.417 0 01-.307.12H8.489zm2.344-6.417h2.259c.57 0 1.015-.142 1.335-.427.33-.286.496-.713.496-1.284 0-.502-.149-.912-.445-1.232-.285-.32-.747-.479-1.386-.479h-2.259v3.422z" fill="#FFC122"/><defs><linearGradient id="paint0_linear_36_1173" x1="18.333" y1="3.056" x2="3.056" y2="18.944" gradientUnits="userSpaceOnUse"><stop stop-color="#9039FF"/><stop offset="1" stop-color="#5297FF"/></linearGradient></defs></svg>