<svg width="17" height="11" fill="none" xmlns="http://www.w3.org/2000/svg"><path d="M6.052.296a.946.946 0 01.278.715c-.009.28-.11.518-.302.715L3.303 4.513h12.733a.92.92 0 01.687.285A.965.965 0 0117 5.5c0 .28-.092.514-.277.703a.925.925 0 01-.687.284H3.303l2.749 2.811c.193.198.29.432.29.704a.97.97 0 01-.29.702.93.93 0 01-.688.296.928.928 0 01-.687-.296L.265 6.191A.873.873 0 01.06 5.87 1.123 1.123 0 010 5.5c0-.132.02-.255.06-.37a.873.873 0 01.205-.32L4.702.27A.889.889 0 015.364 0a.93.93 0 01.688.296z" fill="#fff"/></svg>