<svg width="26" height="20" fill="none" xmlns="http://www.w3.org/2000/svg"><path d="M22 1.662A20.886 20.886 0 0016.711 0a.11.11 0 00-.086.038c-.223.412-.483.95-.656 1.362-1.97-.3-3.974-.3-5.943 0A12.58 12.58 0 009.358.038C9.346.013 9.308 0 9.271 0a21.044 21.044 0 00-5.287 1.662c-.012 0-.024.013-.037.025C.58 6.773-.349 11.722.11 16.621c0 .025.013.05.037.062 2.229 1.65 4.37 2.65 6.488 3.312.037.012.074 0 .087-.025a16.13 16.13 0 001.325-2.175c.024-.05 0-.1-.05-.112-.706-.275-1.374-.6-2.03-.975-.05-.025-.05-.1-.013-.137.136-.1.273-.213.409-.313a.076.076 0 01.086-.012c4.26 1.962 8.853 1.962 13.063 0a.076.076 0 01.086.012c.136.113.273.213.409.325.05.038.05.113-.012.138-.644.387-1.325.7-2.031.974-.05.013-.062.075-.05.113.397.762.842 1.487 1.325 2.174.037.013.075.025.112.013 2.13-.663 4.271-1.662 6.5-3.312a.069.069 0 00.037-.062c.545-5.661-.904-10.573-3.838-14.934-.013-.012-.025-.025-.05-.025zM8.69 13.634c-1.276 0-2.34-1.187-2.34-2.65 0-1.461 1.04-2.649 2.34-2.649 1.312 0 2.352 1.2 2.34 2.65 0 1.462-1.04 2.649-2.34 2.649zm8.63 0c-1.276 0-2.34-1.187-2.34-2.65 0-1.461 1.04-2.649 2.34-2.649 1.312 0 2.352 1.2 2.34 2.65 0 1.462-1.028 2.649-2.34 2.649z" fill="#CBCBEA"/></svg>