<svg width="16" height="16" fill="none" xmlns="http://www.w3.org/2000/svg"><path d="M7.175 1.204a1 1 0 011.65 0l2.148 3.134a1 1 0 00.542.394l3.645 1.074a1 1 0 01.51 1.57l-2.317 3.01a1 1 0 00-.207.638l.104 3.799a1 1 0 01-1.335.97l-3.58-1.274a1 1 0 00-.67 0l-3.58 1.273a1 1 0 01-1.335-.97l.105-3.798a1 1 0 00-.208-.637L.33 7.375a1 1 0 01.51-1.569l3.645-1.074a1 1 0 00.542-.394l2.148-3.134z" fill="url(#paint0_linear_13_1533)"/><defs><linearGradient id="paint0_linear_13_1533" x1="12" y1="3.667" x2="2.667" y2="15.667" gradientUnits="userSpaceOnUse"><stop stop-color="#FFC700"/><stop offset="1" stop-color="#FF8A00"/></linearGradient></defs></svg>